<svg width="30" height="30" viewBox="0 0 30 30" fill="none" xmlns="http://www.w3.org/2000/svg">
<path d="M20 20L15 15L10 20" stroke="#2851E3" stroke-width="2" stroke-linecap="round" stroke-linejoin="round"/>
<path d="M15 15V26.25" stroke="#2851E3" stroke-width="2" stroke-linecap="round" stroke-linejoin="round"/>
<path d="M25.4875 22.9875C26.7067 22.3228 27.6698 21.2711 28.2249 19.9983C28.7799 18.7255 28.8953 17.304 28.5528 15.9584C28.2103 14.6127 27.4294 13.4194 26.3334 12.5668C25.2373 11.7142 23.8886 11.2509 22.5 11.25H20.925C20.5467 9.78655 19.8415 8.42792 18.8624 7.27624C17.8834 6.12456 16.6561 5.20981 15.2726 4.60076C13.8892 3.9917 12.3857 3.7042 10.8752 3.75985C9.36462 3.81551 7.88635 4.21287 6.55148 4.92208C5.21662 5.63129 4.0599 6.63388 3.16829 7.85448C2.27668 9.07508 1.67337 10.4819 1.40374 11.9692C1.1341 13.4566 1.20514 14.9857 1.61153 16.4416C2.01791 17.8975 2.74906 19.2423 3.75001 20.375" stroke="#2851E3" stroke-width="2" stroke-linecap="round" stroke-linejoin="round"/>
<path d="M20 20L15 15L10 20" stroke="#2851E3" stroke-width="2" stroke-linecap="round" stroke-linejoin="round"/>
</svg>
