<svg width="30" height="30" viewBox="0 0 30 30" fill="none" xmlns="http://www.w3.org/2000/svg">
<path d="M15 23.75C19.8325 23.75 23.75 19.8325 23.75 15C23.75 10.1675 19.8325 6.25 15 6.25C10.1675 6.25 6.25 10.1675 6.25 15C6.25 19.8325 10.1675 23.75 15 23.75Z" stroke="#2851E3" stroke-width="2" stroke-linecap="round" stroke-linejoin="round"/>
<path d="M15 11.25V15L16.875 16.875" stroke="#2851E3" stroke-width="2" stroke-linecap="round" stroke-linejoin="round"/>
<path d="M20.6375 21.6875L20.2 26.475C20.1437 27.0983 19.8556 27.6778 19.3927 28.099C18.9299 28.5203 18.3258 28.7525 17.7 28.75H12.2875C11.6617 28.7525 11.0576 28.5203 10.5948 28.099C10.1319 27.6778 9.84382 27.0983 9.7875 26.475L9.35 21.6875M9.3625 8.3125L9.8 3.525C9.85613 2.90385 10.1424 2.32611 10.6026 1.90519C11.0629 1.48428 11.6638 1.25059 12.2875 1.25H17.725C18.3508 1.24746 18.9549 1.47975 19.4177 1.90097C19.8806 2.32219 20.1687 2.9017 20.225 3.525L20.6625 8.3125" stroke="#2851E3" stroke-width="2" stroke-linecap="round" stroke-linejoin="round"/>
</svg>
