<svg width="134" height="35" viewBox="0 0 134 35" fill="none" xmlns="http://www.w3.org/2000/svg">
<path d="M15.45 7.1499V2.8999H2.04999V32.0999H15.45V27.8499C12.705 27.8499 10.0724 26.7594 8.13143 24.8184C6.19043 22.8774 5.09999 20.2449 5.09999 17.4999C5.09999 14.7549 6.19043 12.1223 8.13143 10.1814C10.0724 8.24035 12.705 7.1499 15.45 7.1499Z" fill="white"/>
<path d="M15.45 7.1499V27.8499C18.195 27.8499 20.8276 26.7594 22.7686 24.8184C24.7096 22.8774 25.8 20.2449 25.8 17.4999C25.8 14.7549 24.7096 12.1223 22.7686 10.1814C20.8276 8.24035 18.195 7.1499 15.45 7.1499Z" fill="white"/>
<path d="M33.32 9.75H36.32V24.2H33.32V9.75Z" fill="white"/>
<path d="M38 19.2499C38 18.2103 38.3087 17.1941 38.8869 16.3301C39.4651 15.4661 40.2868 14.7932 41.2479 14.3967C42.209 14.0003 43.2661 13.8981 44.2853 14.1031C45.3045 14.3081 46.2399 14.8111 46.9729 15.5483C47.7059 16.2856 48.2036 17.2238 48.4028 18.2442C48.6019 19.2646 48.4937 20.3211 48.0917 21.2799C47.6897 22.2386 47.0122 23.0565 46.1449 23.6297C45.2776 24.203 44.2596 24.5058 43.22 24.4999C42.5305 24.5053 41.8468 24.373 41.2091 24.1106C40.5714 23.8483 39.9924 23.4613 39.5062 22.9724C39.02 22.4834 38.6364 21.9022 38.3777 21.263C38.1191 20.6238 37.9907 19.9394 38 19.2499ZM45.52 19.2499C45.5082 18.8017 45.3645 18.3669 45.1069 18C44.8493 17.633 44.4893 17.3501 44.0717 17.1867C43.6542 17.0233 43.1978 16.9866 42.7596 17.0813C42.3213 17.1759 41.9207 17.3976 41.6078 17.7188C41.2949 18.0399 41.0836 18.4461 41.0004 18.8867C40.9172 19.3273 40.9657 19.7826 41.1399 20.1957C41.3141 20.6088 41.6062 20.9615 41.9798 21.2094C42.3533 21.4574 42.7916 21.5897 43.24 21.5899C43.5453 21.5959 43.8485 21.5388 44.1307 21.4222C44.4129 21.3057 44.668 21.1322 44.8801 20.9126C45.0922 20.693 45.2567 20.4319 45.3634 20.1459C45.4701 19.8598 45.5166 19.5548 45.5 19.2499H45.52Z" fill="white"/>
<path d="M60.31 14.3001V23.7101C60.31 27.0301 57.71 28.4401 55.08 28.4401C54.1523 28.5162 53.2218 28.3319 52.3933 27.9079C51.5647 27.4839 50.8709 26.837 50.39 26.0401L52.92 24.5801C53.125 24.9935 53.4511 25.3345 53.8549 25.5578C54.2587 25.7811 54.7209 25.8761 55.18 25.8301C55.4725 25.8661 55.7693 25.8371 56.0492 25.7451C56.3292 25.653 56.5853 25.5003 56.7993 25.2977C57.0134 25.0951 57.18 24.8478 57.2873 24.5733C57.3946 24.2989 57.4399 24.0041 57.42 23.7101V22.8001C57.0709 23.2234 56.6279 23.5594 56.1263 23.7816C55.6246 24.0038 55.0781 24.106 54.53 24.0801C53.2039 24.0801 51.9322 23.5533 50.9945 22.6156C50.0568 21.678 49.53 20.4062 49.53 19.0801C49.53 17.754 50.0568 16.4823 50.9945 15.5446C51.9322 14.6069 53.2039 14.0801 54.53 14.0801C55.0781 14.0542 55.6246 14.1564 56.1263 14.3786C56.6279 14.6008 57.0709 14.9368 57.42 15.3601V14.3601L60.31 14.3001ZM57.42 19.0501C57.4399 18.5717 57.3163 18.0982 57.065 17.6906C56.8137 17.283 56.4463 16.9599 56.0098 16.7628C55.5734 16.5657 55.0881 16.5037 54.6161 16.5847C54.1442 16.6657 53.7072 16.886 53.3615 17.2173C53.0158 17.5486 52.7771 17.9758 52.6761 18.4439C52.5751 18.912 52.6164 19.3995 52.7947 19.8439C52.9731 20.2883 53.2803 20.6692 53.6768 20.9376C54.0734 21.206 54.5412 21.3497 55.02 21.3501C55.3325 21.3726 55.6462 21.3293 55.9408 21.2231C56.2355 21.1168 56.5047 20.9499 56.7308 20.7331C56.957 20.5164 57.1352 20.2546 57.2539 19.9647C57.3726 19.6748 57.4292 19.3632 57.42 19.0501Z" fill="white"/>
<path d="M62 19.25C62 18.2112 62.3082 17.1958 62.8855 16.3322C63.4628 15.4686 64.2833 14.7957 65.2432 14.3987C66.2031 14.0016 67.2592 13.8982 68.2779 14.1016C69.2966 14.305 70.232 14.806 70.9659 15.5412C71.6997 16.2765 72.1989 17.2129 72.4003 18.2319C72.6018 19.251 72.4964 20.3069 72.0975 21.266C71.6986 22.2252 71.0241 23.0444 70.1595 23.6201C69.2948 24.1958 68.2788 24.502 67.24 24.5C66.5492 24.5067 65.8639 24.3754 65.2245 24.1138C64.5851 23.8522 64.0043 23.4656 63.5163 22.9766C63.0282 22.4876 62.6427 21.9061 62.3823 21.2662C62.122 20.6263 61.992 19.9408 62 19.25ZM69.52 19.25C69.5082 18.8014 69.3642 18.3662 69.1062 17.999C68.8482 17.6319 68.4875 17.349 68.0694 17.1859C67.6513 17.0228 67.1944 16.9867 66.7559 17.0822C66.3174 17.1776 65.9168 17.4004 65.6043 17.7225C65.2918 18.0446 65.0813 18.4518 64.9993 18.893C64.9172 19.3342 64.9671 19.7898 65.1428 20.2027C65.3185 20.6157 65.6122 20.9676 65.9871 21.2144C66.3619 21.4611 66.8012 21.5918 67.25 21.59C67.5553 21.596 67.8585 21.5389 68.1407 21.4223C68.4229 21.3058 68.678 21.1323 68.8901 20.9127C69.1022 20.6931 69.2667 20.432 69.3734 20.146C69.4801 19.8599 69.5266 19.5549 69.51 19.25H69.52Z" fill="white"/>
<path d="M73.87 11.6501C73.87 11.2981 73.9744 10.9539 74.17 10.6612C74.3656 10.3685 74.6436 10.1403 74.9688 10.0056C75.2941 9.87089 75.652 9.83564 75.9973 9.90432C76.3425 9.973 76.6597 10.1425 76.9087 10.3915C77.1576 10.6404 77.3271 10.9576 77.3958 11.3028C77.4645 11.6481 77.4292 12.006 77.2945 12.3313C77.1598 12.6565 76.9316 12.9345 76.6389 13.1301C76.3462 13.3257 76.0021 13.4301 75.65 13.4301C75.1795 13.4249 74.7298 13.2357 74.3971 12.903C74.0644 12.5703 73.8752 12.1206 73.87 11.6501ZM74.16 14.3001H77.16V24.2001H74.16V14.3001Z" fill="white"/>
<path d="M90 19.2501C90.0336 19.9085 89.9367 20.5671 89.7148 21.1879C89.493 21.8087 89.1505 22.3795 88.7072 22.8674C88.2638 23.3554 87.7284 23.7508 87.1316 24.031C86.5349 24.3112 85.8886 24.4706 85.23 24.5001C84.6711 24.5373 84.111 24.4478 83.5916 24.2383C83.0721 24.0287 82.6067 23.7046 82.23 23.2901V28.1801H79.23V14.3001H82.23V15.2301C82.6072 14.8168 83.073 14.4942 83.5925 14.2864C84.112 14.0785 84.6718 13.9909 85.23 14.0301C85.886 14.0596 86.5297 14.2181 87.1244 14.4964C87.7191 14.7747 88.2532 15.1675 88.6961 15.6522C89.1391 16.1369 89.4822 16.7041 89.7059 17.3215C89.9296 17.9388 90.0296 18.5941 90 19.2501ZM87 19.2501C86.9882 18.7856 86.8395 18.335 86.5727 17.9547C86.3059 17.5744 85.9327 17.2812 85.5 17.1121C85.0673 16.9429 84.5943 16.9053 84.1402 17.0038C83.6862 17.1023 83.2714 17.3327 82.9477 17.666C82.624 17.9993 82.4059 18.4207 82.3208 18.8775C82.2356 19.3342 82.2871 19.8059 82.4689 20.2335C82.6507 20.661 82.9546 21.0254 83.3426 21.281C83.7306 21.5366 84.1854 21.6719 84.65 21.6701C84.9682 21.6836 85.2857 21.6297 85.5816 21.5119C85.8776 21.3941 86.1453 21.2151 86.3672 20.9866C86.5891 20.7581 86.7601 20.4852 86.8692 20.186C86.9783 19.8867 87.0228 19.5678 87 19.2501Z" fill="white"/>
<path d="M99.13 21.23C99.13 23.51 97.13 24.48 95.01 24.48C94.1453 24.5578 93.2772 24.3745 92.5178 23.9538C91.7584 23.5331 91.1426 22.8943 90.75 22.12L93.33 20.66C93.4322 21.0168 93.6538 21.3277 93.9578 21.5407C94.2618 21.7537 94.6297 21.8558 95 21.83C95.71 21.83 96.07 21.61 96.07 21.21C96.07 20.12 91.2 20.7 91.2 17.27C91.2 15.11 93.02 14.03 95.08 14.03C95.863 13.9949 96.641 14.1726 97.3311 14.5441C98.0213 14.9156 98.598 15.4671 99 16.14L96.42 17.5C96.306 17.242 96.1198 17.0226 95.8838 16.8682C95.6477 16.7138 95.372 16.6311 95.09 16.63C94.57 16.63 94.26 16.83 94.26 17.18C94.26 18.32 99.13 17.57 99.13 21.23Z" fill="white"/>
<path d="M110 14.3V24.2H107V23.27C106.659 23.6817 106.226 24.0074 105.737 24.2211C105.247 24.4348 104.714 24.5303 104.18 24.5C102.18 24.5 100.47 23.07 100.47 20.4V14.3H103.47V19.95C103.446 20.1862 103.474 20.4247 103.552 20.6491C103.63 20.8734 103.755 21.0782 103.919 21.2494C104.084 21.4205 104.284 21.5539 104.505 21.6404C104.726 21.7268 104.963 21.7642 105.2 21.75C106.28 21.75 107.04 21.11 107.04 19.75V14.3H110Z" fill="white"/>
<path d="M127 18.12V24.2H124V18.38C124 17.38 123.53 16.76 122.58 16.76C121.63 16.76 121.03 17.45 121.03 18.62V24.2H118.03V18.38C118.03 17.38 117.56 16.76 116.61 16.76C115.66 16.76 115.06 17.45 115.06 18.62V24.2H112.06V14.3H115.06V15.21C115.371 14.808 115.776 14.4896 116.241 14.2836C116.705 14.0776 117.214 13.9904 117.72 14.03C118.227 14.0035 118.733 14.1095 119.187 14.3374C119.641 14.5653 120.028 14.9074 120.31 15.33C120.64 14.8884 121.076 14.5376 121.578 14.3103C122.079 14.0829 122.631 13.9865 123.18 14.03C125.52 14.03 127 15.65 127 18.12Z" fill="white"/>
<path d="M129.52 14.2401C130.735 14.2401 131.72 13.2551 131.72 12.0401C131.72 10.8251 130.735 9.84009 129.52 9.84009C128.305 9.84009 127.32 10.8251 127.32 12.0401C127.32 13.2551 128.305 14.2401 129.52 14.2401Z" fill="white"/>
</svg>
